<svg width="20" height="20" viewBox="0 0 20 20" fill="none" xmlns="http://www.w3.org/2000/svg">
<g clip-path="url(#clip0_1_23478)">
<path d="M15 0H5C3.62167 0 2.5 1.12167 2.5 2.5V20H9.16667V15H10.8333V20H17.5V2.5C17.5 1.12167 16.3783 0 15 0ZM15.8333 18.3333H12.5V15H14.1667V13.3333H5.83333V15H7.5V18.3333H4.16667V2.5C4.16667 2.04083 4.54083 1.66667 5 1.66667H15C15.4592 1.66667 15.8333 2.04083 15.8333 2.5V18.3333ZM5.83333 10H7.5V11.6667H5.83333V10ZM12.5 10H14.1667V11.6667H12.5V10ZM5.83333 3.33333H7.5V5H5.83333V3.33333ZM12.5 3.33333H14.1667V5H12.5V3.33333ZM5.83333 6.66667H7.5V8.33333H5.83333V6.66667ZM12.5 6.66667H14.1667V8.33333H12.5V6.66667ZM9.16667 10H10.8333V11.6667H9.16667V10ZM9.16667 3.33333H10.8333V5H9.16667V3.33333ZM9.16667 6.66667H10.8333V8.33333H9.16667V6.66667Z" fill="white"/>
</g>
<defs>
<clipPath id="clip0_1_23478">
<rect width="20" height="20" fill="white"/>
</clipPath>
</defs>
</svg>
